<svg width="62" height="62" viewBox="0 0 62 62" fill="none" xmlns="http://www.w3.org/2000/svg">
<path d="M31 58.125C16.0193 58.125 3.875 45.9807 3.875 31C3.875 16.0193 16.0193 3.875 31 3.875C45.9807 3.875 58.125 16.0193 58.125 31C58.125 45.9807 45.9807 58.125 31 58.125ZM31 62C48.1208 62 62 48.1208 62 31C62 13.8792 48.1208 0 31 0C13.8792 0 0 13.8792 0 31C0 48.1208 13.8792 62 31 62Z" fill="#CCDFEB"/>
<path d="M42.5074 19.2575C42.48 19.2849 42.4543 19.3139 42.4304 19.3444L28.9749 36.4899L20.8625 28.3775C19.7276 27.2425 17.8874 27.2425 16.7525 28.3775C15.6175 29.5124 15.6175 31.3526 16.7525 32.4875L27.0074 42.7425C28.1424 43.8775 29.9825 43.8775 31.1175 42.7425C31.1428 42.7173 31.1666 42.6906 31.189 42.6627L46.6588 23.3255C47.7523 22.1875 47.7385 20.3785 46.6175 19.2575C45.4825 18.1225 43.6424 18.1225 42.5074 19.2575Z" fill="#CCDFEB"/>
</svg>
