<svg width="85" height="85" viewBox="0 0 85 85" fill="none" xmlns="http://www.w3.org/2000/svg">
<path fill-rule="evenodd" clip-rule="evenodd" d="M69.1682 37.1151C68.0446 36.2411 66.455 36.3034 65.4031 37.2624L57.1863 44.7542C57.0513 46.8326 55.3228 48.4766 53.2103 48.4766H44.5775V45.8203H53.2103C53.9438 45.8203 54.5384 45.2257 54.5384 44.4922V43.8281C54.5384 43.0937 53.9443 42.5 53.2117 42.5H40.8444C40.5914 42.5 40.3418 42.475 40.1062 42.4321C30.7687 40.7351 24.8483 44.4695 22.4739 47.031L33.6036 57.6308C33.7065 57.381 33.8308 57.1406 33.977 56.9104C34.6298 55.8834 35.6251 55.2071 36.7181 54.7593C38.8518 53.8851 41.7327 53.7327 44.5227 53.788C46.3314 53.8239 48.2445 53.9548 50.005 54.0751C50.9661 54.1409 51.8816 54.2036 52.7096 54.2459C53.9174 54.3077 54.9502 54.3284 55.7646 54.2736C56.6449 54.2143 57.0238 54.0775 57.122 54.0121C57.428 53.8082 58.0854 53.2494 59.0326 52.3584C59.9524 51.4933 61.0801 50.3776 62.2994 49.1211C64.7404 46.6054 67.5186 43.5556 69.7012 40.8615C70.6061 39.7447 70.4017 38.0744 69.1682 37.1151ZM32.6671 60.4071L20.6502 48.9625L16.3722 52.8515C15.8016 53.3703 15.7913 54.2643 16.3496 54.796L26.4381 64.404C26.9423 64.8842 27.732 64.8934 28.2474 64.425L32.6671 60.4071ZM19.6705 46.2634L14.5855 50.886C12.8737 52.4422 12.8426 55.1241 14.5177 56.7196L24.6062 66.3275C26.119 67.7684 28.4881 67.7959 30.0341 66.3904L36.031 60.9388L35.9314 60.2419C35.8004 59.3255 35.9618 58.7399 36.2189 58.3352C36.4872 57.913 36.9605 57.5305 37.7253 57.2172C39.3069 56.5692 41.6979 56.3889 44.4701 56.4437C46.2274 56.4786 48.0008 56.6006 49.7099 56.718C50.6909 56.7854 51.6507 56.8514 52.574 56.8987C53.8043 56.9616 54.9657 56.9896 55.943 56.9238C56.8544 56.8625 57.865 56.7093 58.5954 56.2222C59.1134 55.877 59.9235 55.1671 60.8526 54.2933C61.809 53.3937 62.9663 52.2483 64.2058 50.9708C66.6825 48.4183 69.5178 45.3077 71.7651 42.5336C73.6842 40.1648 73.1066 36.8131 70.799 35.0184C68.6546 33.3505 65.6208 33.4693 63.6133 35.2996L56.5848 41.708C55.8801 40.5882 54.6335 39.8437 53.2117 39.8437H40.8444C40.7639 39.8437 40.6737 39.8355 40.5813 39.8188C29.1931 37.749 22.0315 42.9833 19.6705 46.2634Z" fill="#CCDFEB"/>
<path fill-rule="evenodd" clip-rule="evenodd" d="M47.1961 30.2716C48.2591 30.7622 49.8211 31.101 51.6177 31.101C53.4143 31.101 54.9763 30.7622 56.0394 30.2716C57.2153 29.7289 57.3298 29.2468 57.3298 29.1798H59.986C59.986 30.9073 58.5247 32.0501 57.1525 32.6833C55.6675 33.3687 53.7093 33.7572 51.6177 33.7572C49.5261 33.7572 47.5679 33.3687 46.083 32.6833C44.7107 32.0501 43.2493 30.9073 43.2493 29.1798H45.9055C45.9055 29.2468 46.0201 29.7289 47.1961 30.2716Z" fill="#CCDFEB"/>
<path fill-rule="evenodd" clip-rule="evenodd" d="M47.1961 25.9391C48.2591 26.4297 49.8211 26.7685 51.6177 26.7685C53.4143 26.7685 54.9763 26.4297 56.0394 25.9391C57.2153 25.3964 57.3298 24.9143 57.3298 24.8474H59.986C59.986 26.5748 58.5247 27.7176 57.1525 28.3508C55.6675 29.0363 53.7093 29.4247 51.6177 29.4247C49.5261 29.4247 47.5679 29.0363 46.083 28.3508C44.7107 27.7176 43.2493 26.5748 43.2493 24.8474H45.9055C45.9055 24.9143 46.0201 25.3964 47.1961 25.9391Z" fill="#CCDFEB"/>
<path fill-rule="evenodd" clip-rule="evenodd" d="M47.1961 19.4232C46.0201 19.966 45.9055 20.4479 45.9055 20.515C45.9055 20.582 46.0201 21.0641 47.1961 21.6067C48.2591 22.0973 49.8211 22.4361 51.6177 22.4361C53.4143 22.4361 54.9763 22.0973 56.0394 21.6067C57.2153 21.0641 57.3299 20.582 57.3299 20.515C57.3299 20.4479 57.2153 19.966 56.0394 19.4232C54.9763 18.9326 53.4143 18.5938 51.6177 18.5938C49.8211 18.5938 48.2591 18.9326 47.1961 19.4232ZM46.083 17.0114C47.5679 16.3261 49.5261 15.9375 51.6177 15.9375C53.7093 15.9375 55.6675 16.3261 57.1525 17.0114C58.5247 17.6448 59.9862 18.7874 59.9862 20.515C59.9862 22.2425 58.5247 23.3852 57.1525 24.0185C55.6675 24.7039 53.7093 25.0924 51.6177 25.0924C49.5261 25.0924 47.5679 24.7039 46.083 24.0185C44.7107 23.3852 43.2493 22.2425 43.2493 20.515C43.2493 18.7874 44.7107 17.6448 46.083 17.0114Z" fill="#CCDFEB"/>
</svg>
