<svg width="147" height="37" viewBox="0 0 147 37" fill="none" xmlns="http://www.w3.org/2000/svg">
<g clip-path="url(#clip0_2017_157)">
<path d="M53.2801 26.5245L46.2742 16.4046L43.9066 18.7877V26.5245H41.2097V6.1212H43.9066V16.7635L54.3659 6.1212H56.5043L48.0843 14.5769L56.5377 26.5256H53.2812L53.2801 26.5245Z" fill="white"/>
<path d="M71.7644 26.5245L69.4947 19.5706H61.8647L59.5628 26.5245H58.0174L64.398 7.55681V6.64244L67.5555 5.56463L74.627 26.5234H71.7655L71.7644 26.5245ZM65.811 8.47118H65.5807L62.3242 18.2322H69.0341L65.811 8.47118Z" fill="white"/>
<path d="M90.7415 26.6879L79.6247 9.18899H79.4934V26.5245H77.9147V6.25152L80.8419 5.9909L91.8931 23.4567H92.0577V6.12121H93.6365V26.4273L90.7427 26.689L90.7415 26.6879Z" fill="white"/>
<path d="M98.6342 23.619C100.114 24.7289 102.055 25.7415 104.226 25.7415C107.614 25.7415 109.192 23.9128 109.192 21.8234C109.192 19.7341 108.108 18.5911 103.799 17.1224C99.8513 15.7839 97.911 14.0215 97.911 11.116C97.911 8.21057 100.147 5.63089 104.917 5.63089C107.121 5.63089 109.587 6.21838 110.903 6.83901L110.277 8.86321C108.961 7.75338 106.824 6.93729 104.685 6.93729C101.725 6.93729 100.146 8.6026 100.146 10.4302C100.146 12.5847 101.725 13.7277 105.442 15.001C109.783 16.4697 111.527 18.1682 111.527 21.1388C111.527 24.3711 108.895 27.0148 104.06 27.0148C101.89 27.0148 99.5876 26.4925 97.9755 25.6432L98.633 23.619H98.6342Z" fill="white"/>
<path d="M127.084 26.5245L124.814 19.5706H117.184L114.882 26.5245H113.337L119.717 7.55681V6.64244L122.875 5.56463L129.946 26.5234H127.085L127.084 26.5245ZM121.13 8.47118H120.9L117.644 18.2322H124.354L121.13 8.47118Z" fill="white"/>
<path d="M136.886 26.5245V17.9064L129.683 6.1212H132.741L138.727 16.176H138.991L145.042 6.1212H146.72L139.582 17.9064V26.5245H136.886Z" fill="white"/>
<path d="M44.0791 33.4783C43.9367 33.6451 43.5006 34.0614 42.6339 34.0614C41.4145 34.0614 40.6869 33.3392 40.6869 31.9367C40.6869 30.4647 41.4746 29.6762 42.675 29.6762C43.5517 29.6762 43.8822 30.0671 43.9612 30.1742C43.9767 30.3322 43.7965 30.4702 43.6686 30.468C43.5896 30.3609 43.307 30.0362 42.7251 30.0362C41.9029 30.0362 41.4134 30.6568 41.4134 31.8429C41.4134 33.094 41.9085 33.7003 42.6873 33.7003C43.3415 33.7003 43.6875 33.3381 43.8021 33.199C43.92 33.2023 44.0813 33.3348 44.078 33.4795L44.0791 33.4783Z" fill="white"/>
<path d="M44.8178 33.9885H44.414L46.2241 29.748H46.6625L48.3369 33.9885H47.6026L47.1075 32.7186H45.3474L44.8167 33.9885H44.8178ZM46.9651 32.3619L46.2564 30.5707L45.501 32.3619H46.9651Z" fill="white"/>
<path d="M52.4701 29.748V33.9885H51.7648V31.9169H49.8523V33.9885H49.1469V29.748H49.8523V31.5546H51.7648V29.748H52.4701Z" fill="white"/>
<path d="M55.3806 32.6523H55.4151L56.5399 29.7491H56.9683L55.6309 33.1945C55.2816 34.099 54.8777 34.4214 54.1156 34.4214C53.9409 34.3618 53.9254 33.9521 54.0199 33.8317C54.6452 33.8317 55.0168 33.6683 55.1792 33.2641H54.9278L53.2957 29.7491H54.0355L55.3795 32.6523H55.3806Z" fill="white"/>
<path d="M58.063 31.5513H58.3645C58.9587 31.5513 59.3113 31.2675 59.3113 30.7441C59.3113 30.2206 58.9687 30.0351 58.5492 30.0351C58.1042 30.0351 57.8439 30.2273 57.6848 30.3631C57.5668 30.3565 57.4278 30.2217 57.4433 30.0384C57.5802 29.9125 57.9896 29.6762 58.6794 29.6762C59.4126 29.6762 60.039 29.9445 60.039 30.6911C60.039 31.4376 59.4482 31.675 59.1778 31.7126V31.7346C59.4382 31.7634 60.1369 31.9146 60.1369 32.7683C60.1369 33.7014 59.3647 34.0614 58.4758 34.0614C57.8149 34.0614 57.4144 33.803 57.282 33.6705C57.2698 33.5258 57.4222 33.3525 57.5334 33.3525C57.667 33.4817 57.984 33.6992 58.448 33.6992C59.0043 33.6992 59.4104 33.4253 59.4104 32.7782C59.4104 32.1311 58.9943 31.9113 58.3434 31.9113H58.0641C58.0007 31.855 58.0007 31.6176 58.0641 31.5524L58.063 31.5513Z" fill="white"/>
<path d="M62.0817 33.6164H63.9085C63.9719 33.7014 63.9719 33.9035 63.9085 33.9885H61.3774V29.748H63.795C63.8585 29.833 63.8585 30.0351 63.795 30.1201H62.0828V31.5767H63.528C63.5914 31.6618 63.5914 31.8638 63.528 31.9489H62.0828V33.6164H62.0817Z" fill="white"/>
<path d="M64.4837 33.4684C65.1857 33.3834 65.3159 32.4812 65.4083 29.748H67.8637V33.9885H67.1583V30.1102H65.7899C65.7075 32.9251 65.4783 33.9598 64.6239 34.0603C64.5004 34.0261 64.3724 33.676 64.4837 33.4673V33.4684Z" fill="white"/>
<path d="M92.5462 29.706V34.0592H91.9799V30.1776H89.9427V34.0592H89.3764V29.706H92.545H92.5462Z" fill="white"/>
<path d="M97.2835 31.8373C97.2835 33.3359 96.3656 34.1299 95.2464 34.1299C94.1271 34.1299 93.2749 33.2387 93.2749 31.9213C93.2749 30.5387 94.1405 29.6353 95.312 29.6353C96.4836 29.6353 97.2835 30.5464 97.2835 31.8373ZM93.8801 31.908C93.8801 32.8378 94.3875 33.6716 95.2787 33.6716C96.1698 33.6716 96.6838 32.8511 96.6838 31.8627C96.6838 30.997 96.2288 30.0925 95.2842 30.0925C94.3396 30.0925 93.879 30.9517 93.879 31.9069L93.8801 31.908Z" fill="white"/>
<path d="M100.882 29.706V33.6009L101.265 33.6142L101.226 35.1061H100.784L100.745 34.0603H97.9789L97.9399 35.1061H97.4971L97.4582 33.6142L97.7897 33.6009C97.9521 33.3039 98.1146 32.9869 98.2192 32.6446C98.3682 32.141 98.4272 31.559 98.4272 30.8103V29.706H100.88H100.882ZM98.9557 30.9914C98.9557 31.6894 98.8912 32.2769 98.7343 32.7672C98.6431 33.0709 98.5062 33.3613 98.376 33.5943H100.315V30.1709H98.9557V30.9914Z" fill="white"/>
<path d="M125.169 29.6199H125.874V31.347C126.373 31.347 126.554 31.3062 126.744 30.9495L127.195 30.1014C127.459 29.6033 127.681 29.5459 128.075 29.5459C128.183 29.6221 128.186 30.013 128.085 30.1323C127.688 30.1323 127.551 30.1919 127.364 30.5574L127.097 31.0743C126.941 31.3702 126.818 31.4773 126.71 31.4972V31.5259C127.022 31.5381 127.222 31.5822 127.438 32.0019L128.434 33.8428L128.424 33.8582H127.592L126.709 32.0924C126.543 31.7391 126.394 31.7103 125.873 31.7103V33.8571H125.168V29.6166L125.169 29.6199Z" fill="white"/>
<path d="M128.826 33.3403C129.528 33.2553 129.658 32.3531 129.751 29.6199H132.206V33.8604H131.501V29.9821H130.132C130.05 32.797 129.821 33.8317 128.966 33.9322C128.843 33.898 128.716 33.5479 128.826 33.3392V33.3403Z" fill="white"/>
<path d="M133.668 29.6199H134.373V31.4519H135.235C135.334 30.2129 135.978 29.5481 137.111 29.5481C138.245 29.5481 138.973 30.3487 138.973 31.6794C138.973 33.1294 138.329 33.9333 137.058 33.9333C135.933 33.9333 135.235 33.1769 135.222 31.8175H134.375V33.8604H133.669V29.6199H133.668ZM137.12 33.57C137.908 33.57 138.245 32.8864 138.245 31.7545C138.245 30.6226 137.884 29.907 137.083 29.907C136.281 29.907 135.949 30.6005 135.949 31.6849C135.949 32.7694 136.314 33.57 137.121 33.57H137.12Z" fill="white"/>
<path d="M139.791 29.6199H140.496V30.7639C140.496 31.4862 140.703 31.8009 141.309 31.8009C141.643 31.8009 141.912 31.6971 142.157 31.527V29.6199H142.862V33.8604H142.157V31.9146L142.131 31.908C142.011 31.993 141.649 32.1852 141.131 32.1852C140.184 32.1852 139.791 31.8672 139.791 30.8424V29.6188V29.6199Z" fill="white"/>
<path d="M33.6743 2.62053H0.0556335V35.9896H33.6743V2.62053Z" fill="#666666" stroke="white" stroke-miterlimit="10"/>
<path d="M7.91818 7.1957V31.813L13.8115 25.9624L19.3043 31.4144L25.8117 24.9564L20.468 19.6524L25.9964 14.165L19.4111 7.62859L13.8827 13.1159L7.91818 7.1957Z" fill="white"/>
<path d="M9.00293 9.88691V17.7728L12.9214 13.8823L9.00293 9.88691Z" fill="#666666"/>
<path d="M9.36786 19.5044L13.8293 23.9327L18.3029 19.4922L13.7347 14.959L9.36786 19.5044Z" fill="#666666"/>
<path d="M9.00293 20.8969V29.1097L13.0304 25.111L9.00293 20.8969Z" fill="#666666"/>
<path d="M20.1187 20.9024V29.1097L24.1851 25.0734L20.1187 20.9024Z" fill="#666666"/>
<path d="M20.1187 10.0504V18.018L24.1584 14.0082L20.1187 10.0504Z" fill="#666666"/>
<path d="M19.0161 9.73452V18.018L14.7928 13.8271L19.0161 9.73452Z" fill="#666666"/>
<path d="M14.884 25.0027L19.0161 20.9024V29.1097L14.884 25.0027Z" fill="#666666"/>
</g>
<defs>
<clipPath id="clip0_2017_157">
<rect width="147" height="37" fill="white"/>
</clipPath>
</defs>
</svg>
