<svg width="62" height="64" viewBox="0 0 62 64" fill="none" xmlns="http://www.w3.org/2000/svg">
<path fill-rule="evenodd" clip-rule="evenodd" d="M16.6081 8H34.7829C38.4023 8 41.5223 8.61794 44.1011 9.90454C46.661 11.1607 48.6337 12.9301 49.9763 15.2187C51.3342 17.4759 52 20.0578 52 22.9327C52 26.0241 51.341 28.7356 49.9768 31.0249C48.6298 33.3002 46.6486 35.0314 44.0787 36.2244L44.0721 36.2274C41.5017 37.398 38.3928 37.9602 34.7829 37.9602H24.7374V40.2885H35.3998V47.2802H24.7374V56H16.6081V47.2802H10V40.2885H16.6081V37.9602H10V31H16.6081V8ZM18.6081 10V33H12V35.9602H18.6081V42.2885H12V45.2802H18.6081V54H22.7374V45.2802H33.3998V42.2885H22.7374V35.9602H34.7829C38.1946 35.9602 41.0011 35.4276 43.24 34.4087C45.4779 33.3692 47.1348 31.8996 48.256 30.0057L48.2576 30.003C49.4038 28.0804 50 25.7378 50 22.9327C50 20.3757 49.4111 18.1571 48.2599 16.2453L48.2537 16.2351C47.1282 14.3146 45.4638 12.8005 43.2173 11.6987L43.211 11.6955C40.9806 10.5821 38.1852 10 34.7829 10H18.6081ZM22.7374 12.9918H34.7829C37.3178 12.9918 39.4626 13.452 41.1382 14.4604C42.7694 15.4296 43.9909 16.6927 44.7473 18.2595C45.4937 19.762 45.8707 21.3444 45.8707 22.9959C45.8707 24.9585 45.483 26.7157 44.6693 28.2341C43.8596 29.7852 42.5999 30.9695 40.9407 31.7905C39.2696 32.6174 37.1993 33 34.7829 33H22.7374V12.9918ZM24.7374 14.9918V31H34.7829C37.0061 31 38.7453 30.6454 40.0537 29.998C41.3721 29.3456 42.3034 28.4466 42.8985 27.3044L42.9042 27.2935C43.5357 26.1171 43.8707 24.6957 43.8707 22.9959C43.8707 21.6586 43.5676 20.3785 42.9538 19.1446L42.9482 19.1333C42.3854 17.9654 41.4594 16.9772 40.1143 16.1785L40.1089 16.1753C38.8479 15.4157 37.099 14.9918 34.7829 14.9918H24.7374Z" fill="#CCDFEB"/>
</svg>
